<svg width="1920" height="1129" viewBox="0 0 1920 1129" fill="none" xmlns="http://www.w3.org/2000/svg">
<path d="M0 19C0 19 584.914 49 960 49C1335.09 49 1920 19 1920 19V1129C1920 1129 1335.09 1099 960 1099C584.914 1099 0 1129 0 1129L0 19Z" fill="#7854F7"/>
<path opacity="0.05" fill-rule="evenodd" clip-rule="evenodd" d="M1319.71 24.9052C1324.46 18.4526 1331.58 15.0564 1341.07 14.3772C1358.36 13.0188 1368.2 21.1695 1370.57 38.8292C1381.08 109.808 1392.61 169.919 1404.82 219.162L1479.07 77.5447C1485.86 64.6395 1494.33 57.8473 1504.5 57.1681C1519.42 56.1493 1528.58 65.6583 1532.31 85.6953C1540.79 130.863 1551.64 169.239 1564.52 201.842C1573.34 115.581 1588.26 53.4324 1609.28 15.0565C1614.36 5.54741 1621.82 0.792893 1631.66 0.113674C1639.46 -0.565546 1646.58 1.81172 1653.02 6.90587C1659.46 12 1662.85 18.4525 1663.53 26.2636C1663.87 32.3765 1662.85 37.4708 1660.14 42.5649C1646.92 67.0168 1636.07 108.11 1627.25 165.164C1618.77 220.521 1615.72 263.651 1617.76 294.555C1618.43 303.046 1617.08 310.517 1613.69 316.97C1609.62 324.441 1603.51 328.516 1595.72 329.196C1586.9 329.875 1577.74 325.799 1568.93 316.63C1537.39 284.367 1512.3 236.143 1493.99 171.956C1471.95 215.426 1455.68 248.029 1445.17 269.764C1425.16 308.14 1408.21 327.837 1393.97 328.856C1384.81 329.535 1377.01 321.724 1370.23 305.423C1352.94 260.934 1334.29 175.013 1314.28 47.6591C1313.27 38.8292 1314.96 31.0181 1319.71 24.9052ZM2047.71 78.1331C2035.5 56.6782 2017.51 43.737 1993.42 38.6287C1986.97 37.2665 1980.86 36.5854 1975.09 36.5854C1942.52 36.5854 1916.05 53.6131 1895.35 87.6686C1877.7 116.616 1868.88 148.628 1868.88 183.705C1868.88 209.928 1874.31 232.405 1885.17 251.135C1897.38 272.59 1915.37 285.531 1939.46 290.64C1945.91 292.002 1952.02 292.683 1957.79 292.683C1990.7 292.683 2017.17 275.655 2037.53 241.6C2055.18 212.312 2064 180.3 2064 145.222C2064 118.659 2058.57 96.5231 2047.71 78.1331ZM2004.95 172.467C2000.2 194.944 1991.72 211.631 1979.16 222.869C1969.32 231.724 1960.16 235.47 1951.68 233.767C1943.53 232.064 1936.75 224.912 1931.66 211.631C1927.58 201.074 1925.55 190.516 1925.55 180.64C1925.55 172.126 1926.23 163.612 1927.92 155.78C1930.98 141.817 1936.75 128.195 1945.91 115.254C1957.11 98.5664 1968.98 91.7553 1981.2 94.1392C1989.34 95.8419 1996.13 102.994 2001.22 116.275C2005.29 126.832 2007.33 137.39 2007.33 147.266C2007.33 156.12 2006.31 164.634 2004.95 172.467ZM1782.03 38.6287C1805.79 43.737 1824.11 56.6782 1836.33 78.1331C1847.19 96.5231 1852.62 118.659 1852.62 145.222C1852.62 180.3 1843.8 212.312 1826.15 241.6C1805.79 275.655 1779.32 292.683 1746.4 292.683C1740.64 292.683 1734.53 292.002 1728.08 290.64C1703.99 285.531 1686 272.59 1673.78 251.135C1662.93 232.405 1657.5 209.928 1657.5 183.705C1657.5 148.628 1666.32 116.616 1683.96 87.6686C1704.66 53.6131 1731.13 36.5854 1763.71 36.5854C1769.48 36.5854 1775.59 37.2665 1782.03 38.6287ZM1767.78 222.869C1780.34 211.631 1788.82 194.944 1793.57 172.467C1795.27 164.634 1795.95 156.12 1795.95 147.266C1795.95 137.39 1793.91 126.832 1789.84 116.275C1784.75 102.994 1777.96 95.8419 1769.82 94.1392C1757.6 91.7553 1745.73 98.5664 1734.53 115.254C1725.36 128.195 1719.6 141.817 1716.54 155.78C1714.85 163.612 1714.17 172.126 1714.17 180.64C1714.17 190.516 1716.2 201.074 1720.27 211.631C1725.36 224.912 1732.15 232.064 1740.3 233.767C1748.78 235.47 1757.94 231.724 1767.78 222.869Z" fill="white"/>
</svg>
