<svg width="266" height="163" viewBox="0 0 266 163" fill="none" xmlns="http://www.w3.org/2000/svg">
<circle cx="261.919" cy="3.52358" r="3.52358" transform="rotate(90 261.919 3.52358)" fill="#70C217"/>
<circle cx="261.919" cy="55.2028" r="3.52358" transform="rotate(90 261.919 55.2028)" fill="#70C217"/>
<circle cx="261.919" cy="106.882" r="3.52358" transform="rotate(90 261.919 106.882)" fill="#70C217"/>
<circle cx="261.919" cy="158.561" r="3.52358" transform="rotate(90 261.919 158.561)" fill="#70C217"/>
<circle cx="210.24" cy="3.52358" r="3.52358" transform="rotate(90 210.24 3.52358)" fill="#70C217"/>
<circle cx="210.24" cy="55.2028" r="3.52358" transform="rotate(90 210.24 55.2028)" fill="#70C217"/>
<circle cx="210.24" cy="106.882" r="3.52358" transform="rotate(90 210.24 106.882)" fill="#70C217"/>
<circle cx="210.24" cy="158.561" r="3.52358" transform="rotate(90 210.24 158.561)" fill="#70C217"/>
<circle cx="158.56" cy="3.52358" r="3.52358" transform="rotate(90 158.56 3.52358)" fill="#70C217"/>
<circle cx="158.56" cy="55.2028" r="3.52358" transform="rotate(90 158.56 55.2028)" fill="#70C217"/>
<circle cx="158.56" cy="106.882" r="3.52358" transform="rotate(90 158.56 106.882)" fill="#70C217"/>
<circle cx="158.56" cy="158.561" r="3.52358" transform="rotate(90 158.56 158.561)" fill="#70C217"/>
<circle cx="106.881" cy="3.52358" r="3.52358" transform="rotate(90 106.881 3.52358)" fill="#70C217"/>
<circle cx="106.881" cy="55.2028" r="3.52358" transform="rotate(90 106.881 55.2028)" fill="#70C217"/>
<circle cx="106.881" cy="106.882" r="3.52358" transform="rotate(90 106.881 106.882)" fill="#70C217"/>
<circle cx="106.881" cy="158.561" r="3.52358" transform="rotate(90 106.881 158.561)" fill="#70C217"/>
<circle cx="55.202" cy="3.52358" r="3.52358" transform="rotate(90 55.202 3.52358)" fill="#70C217"/>
<circle cx="55.202" cy="55.2028" r="3.52358" transform="rotate(90 55.202 55.2028)" fill="#70C217"/>
<circle cx="55.202" cy="106.882" r="3.52358" transform="rotate(90 55.202 106.882)" fill="#70C217"/>
<circle cx="55.202" cy="158.561" r="3.52358" transform="rotate(90 55.202 158.561)" fill="#70C217"/>
<circle cx="3.52281" cy="3.52358" r="3.52358" transform="rotate(90 3.52281 3.52358)" fill="#70C217"/>
<circle cx="3.52281" cy="55.2028" r="3.52358" transform="rotate(90 3.52281 55.2028)" fill="#70C217"/>
<circle cx="3.52281" cy="106.882" r="3.52358" transform="rotate(90 3.52281 106.882)" fill="#70C217"/>
<circle cx="3.52281" cy="158.561" r="3.52358" transform="rotate(90 3.52281 158.561)" fill="#70C217"/>
</svg>
