<svg width="473" height="214" viewBox="0 0 473 214" fill="none" xmlns="http://www.w3.org/2000/svg">
<circle cx="469.438" cy="3.72182" r="3.52358" transform="rotate(90 469.438 3.72182)" fill="#EF4358"/>
<circle cx="469.438" cy="55.4005" r="3.52358" transform="rotate(90 469.438 55.4005)" fill="#EF4358"/>
<circle cx="469.438" cy="107.08" r="3.52358" transform="rotate(90 469.438 107.08)" fill="#EF4358"/>
<circle cx="469.438" cy="158.759" r="3.52358" transform="rotate(90 469.438 158.759)" fill="#EF4358"/>
<circle cx="469.438" cy="210.438" r="3.52358" transform="rotate(90 469.438 210.438)" fill="#EF4358"/>
<circle cx="417.759" cy="3.72133" r="3.52358" transform="rotate(90 417.759 3.72133)" fill="#EF4358"/>
<circle cx="417.759" cy="55.4005" r="3.52358" transform="rotate(90 417.759 55.4005)" fill="#EF4358"/>
<circle cx="417.759" cy="107.08" r="3.52358" transform="rotate(90 417.759 107.08)" fill="#EF4358"/>
<circle cx="417.759" cy="158.759" r="3.52358" transform="rotate(90 417.759 158.759)" fill="#EF4358"/>
<circle cx="417.759" cy="210.438" r="3.52358" transform="rotate(90 417.759 210.438)" fill="#EF4358"/>
<circle cx="366.08" cy="3.72133" r="3.52358" transform="rotate(90 366.08 3.72133)" fill="#EF4358"/>
<circle cx="366.08" cy="55.4005" r="3.52358" transform="rotate(90 366.08 55.4005)" fill="#EF4358"/>
<circle cx="366.08" cy="107.08" r="3.52358" transform="rotate(90 366.08 107.08)" fill="#EF4358"/>
<circle cx="366.08" cy="158.759" r="3.52358" transform="rotate(90 366.08 158.759)" fill="#EF4358"/>
<circle cx="366.08" cy="210.438" r="3.52358" transform="rotate(90 366.08 210.438)" fill="#EF4358"/>
<circle cx="314.401" cy="3.72133" r="3.52358" transform="rotate(90 314.401 3.72133)" fill="#EF4358"/>
<circle cx="314.401" cy="55.4005" r="3.52358" transform="rotate(90 314.401 55.4005)" fill="#EF4358"/>
<circle cx="314.401" cy="107.08" r="3.52358" transform="rotate(90 314.401 107.08)" fill="#EF4358"/>
<circle cx="314.401" cy="158.759" r="3.52358" transform="rotate(90 314.401 158.759)" fill="#EF4358"/>
<circle cx="314.401" cy="210.438" r="3.52358" transform="rotate(90 314.401 210.438)" fill="#EF4358"/>
<circle cx="262.722" cy="3.72133" r="3.52358" transform="rotate(90 262.722 3.72133)" fill="#EF4358"/>
<circle cx="262.722" cy="55.4005" r="3.52358" transform="rotate(90 262.722 55.4005)" fill="#EF4358"/>
<circle cx="262.722" cy="107.08" r="3.52358" transform="rotate(90 262.722 107.08)" fill="#EF4358"/>
<circle cx="262.722" cy="158.759" r="3.52358" transform="rotate(90 262.722 158.759)" fill="#EF4358"/>
<circle cx="262.722" cy="210.438" r="3.52358" transform="rotate(90 262.722 210.438)" fill="#EF4358"/>
<circle cx="211.042" cy="3.72133" r="3.52358" transform="rotate(90 211.042 3.72133)" fill="#EF4358"/>
<circle cx="211.042" cy="55.4005" r="3.52358" transform="rotate(90 211.042 55.4005)" fill="#EF4358"/>
<circle cx="211.042" cy="107.08" r="3.52358" transform="rotate(90 211.042 107.08)" fill="#EF4358"/>
<circle cx="211.042" cy="158.759" r="3.52358" transform="rotate(90 211.042 158.759)" fill="#EF4358"/>
<circle cx="211.042" cy="210.438" r="3.52358" transform="rotate(90 211.042 210.438)" fill="#EF4358"/>
<circle cx="159.363" cy="3.72133" r="3.52358" transform="rotate(90 159.363 3.72133)" fill="#EF4358"/>
<circle cx="159.363" cy="55.4005" r="3.52358" transform="rotate(90 159.363 55.4005)" fill="#EF4358"/>
<circle cx="159.363" cy="107.08" r="3.52358" transform="rotate(90 159.363 107.08)" fill="#EF4358"/>
<circle cx="159.363" cy="158.759" r="3.52358" transform="rotate(90 159.363 158.759)" fill="#EF4358"/>
<circle cx="159.363" cy="210.438" r="3.52358" transform="rotate(90 159.363 210.438)" fill="#EF4358"/>
<circle cx="107.684" cy="55.4005" r="3.52358" transform="rotate(90 107.684 55.4005)" fill="#EF4358"/>
<circle cx="107.684" cy="107.08" r="3.52358" transform="rotate(90 107.684 107.08)" fill="#EF4358"/>
<circle cx="107.684" cy="158.759" r="3.52358" transform="rotate(90 107.684 158.759)" fill="#EF4358"/>
<circle cx="107.684" cy="210.438" r="3.52358" transform="rotate(90 107.684 210.438)" fill="#EF4358"/>
<circle cx="56.0047" cy="3.72133" r="3.52358" transform="rotate(90 56.0047 3.72133)" fill="#EF4358"/>
<circle cx="56.0047" cy="55.4005" r="3.52358" transform="rotate(90 56.0047 55.4005)" fill="#EF4358"/>
<circle cx="56.0047" cy="107.08" r="3.52358" transform="rotate(90 56.0047 107.08)" fill="#EF4358"/>
<circle cx="56.0047" cy="158.759" r="3.52358" transform="rotate(90 56.0047 158.759)" fill="#EF4358"/>
<circle cx="56.0047" cy="210.438" r="3.52358" transform="rotate(90 56.0047 210.438)" fill="#EF4358"/>
<circle cx="4.32554" cy="3.72133" r="3.52358" transform="rotate(90 4.32554 3.72133)" fill="#EF4358"/>
<circle cx="4.32554" cy="55.4005" r="3.52358" transform="rotate(90 4.32554 55.4005)" fill="#EF4358"/>
<circle cx="4.32554" cy="107.08" r="3.52358" transform="rotate(90 4.32554 107.08)" fill="#EF4358"/>
<circle cx="4.32554" cy="158.759" r="3.52358" transform="rotate(90 4.32554 158.759)" fill="#EF4358"/>
<circle cx="4.32554" cy="210.438" r="3.52358" transform="rotate(90 4.32554 210.438)" fill="#EF4358"/>
</svg>
