<svg width="109" height="18" viewBox="0 0 109 18" fill="none" xmlns="http://www.w3.org/2000/svg">
<path d="M2.34039 3.30845C0.77233 4.85311 0 6.81904 0 9.20624C0 11.7573 0.772328 13.8402 2.31699 15.4083C3.86165 16.9763 5.87439 17.7721 8.37861 17.7721C9.10414 17.7721 9.92327 17.6551 10.8126 17.3976V13.6062C9.99348 13.8402 9.29136 13.9572 8.68286 13.9572C7.44245 13.9572 6.45949 13.536 5.71056 12.7168C4.96163 11.8743 4.58717 10.7509 4.58717 9.32326C4.58717 7.98923 4.96164 6.88925 5.68716 6.04671C6.43609 5.18076 7.34884 4.75949 8.47223 4.75949C9.19775 4.75949 9.97008 4.87651 10.8126 5.11055V1.31912C10.0403 1.10848 9.17435 1.01486 8.26159 1.01486C5.87439 0.991457 3.90846 1.76379 2.34039 3.30845ZM18.5827 0.991455C16.4296 0.991455 14.7445 1.71698 13.5275 3.14462C12.3105 4.57226 11.7254 6.585 11.7254 9.15944C11.7254 11.9445 12.3339 14.0743 13.5275 15.5487C14.7211 17.0232 16.4764 17.7721 18.77 17.7721C20.9933 17.7721 22.7018 17.0232 23.8954 15.5487C25.089 14.0743 25.6975 11.9913 25.6975 9.32326C25.6975 6.65521 25.089 4.59566 23.872 3.14462C22.6316 1.71698 20.8763 0.991455 18.5827 0.991455ZM20.4316 13.1615C20.0104 13.8168 19.3785 14.1445 18.5827 14.1445C17.8338 14.1445 17.2721 13.8168 16.8742 13.1615C16.4764 12.5062 16.2891 11.1956 16.2891 9.20624C16.2891 6.14032 17.0615 4.61907 18.6295 4.61907C20.2678 4.61907 21.1104 6.16373 21.1104 9.27645C21.087 11.1956 20.8529 12.5062 20.4316 13.1615ZM37.2591 1.43614L36.4165 5.01694C36.2059 5.92969 35.9953 6.86585 35.808 7.82541L35.34 10.3062C34.8953 7.82541 34.2868 4.87651 33.5144 1.43614H28.0847L26.0486 17.3742H30.1209L31.2208 6.39777L34.0059 17.3742H36.908L39.5761 6.42117L40.7229 17.3742H44.9824L42.8292 1.43614H37.2591ZM56.7546 1.43614L55.912 5.01694C55.7014 5.92969 55.4907 6.86585 55.3035 7.82541L54.8354 10.3062C54.3908 7.82541 53.7823 4.87651 53.0099 1.43614H47.5802L45.5441 17.3742H49.6164L50.7163 6.39777L53.5014 17.3742H56.4035L59.0481 6.42117L60.1949 17.3742H64.4544L62.3013 1.43614H56.7546ZM70.0012 11.0786H73.816V7.7786H70.0012V4.8531H74.4011V1.45953H65.6948V17.3976H74.4245V14.004H70.0012V11.0786ZM86.5478 8.55093C86.9924 7.82541 87.2265 7.07648 87.2265 6.30415C87.2265 4.8063 86.6414 3.6127 85.4712 2.74675C84.301 1.8808 82.6861 1.43614 80.6734 1.43614H75.6649V17.3742H79.9712V10.119H80.0415L83.5286 17.3742H88.069L84.6286 10.1892C85.4478 9.81474 86.1031 9.27645 86.5478 8.55093ZM79.9478 8.29349V4.50205C80.9776 4.52545 81.7031 4.68928 82.1478 5.01694C82.5925 5.34459 82.8031 5.85947 82.8031 6.6084C82.8031 7.70839 81.8436 8.27008 79.9478 8.29349ZM89.7541 3.30845C88.186 4.85311 87.4137 6.81904 87.4137 9.20624C87.4137 11.7573 88.186 13.8402 89.7307 15.4083C91.2754 16.9763 93.2881 17.7721 95.7923 17.7721C96.5178 17.7721 97.337 17.6551 98.2263 17.3976V13.6062C97.4072 13.8402 96.7051 13.9572 96.0966 13.9572C94.8562 13.9572 93.8732 13.536 93.1243 12.7168C92.3753 11.8743 92.0009 10.7509 92.0009 9.32326C92.0009 7.98923 92.3753 6.88925 93.1009 6.04671C93.8498 5.18076 94.7625 4.75949 95.8859 4.75949C96.6114 4.75949 97.3838 4.87651 98.2263 5.11055V1.31912C97.454 1.10848 96.5881 1.01486 95.6753 1.01486C93.3115 0.991457 91.3222 1.76379 89.7541 3.30845ZM103.726 13.9572V11.0551H107.541V7.7552H103.726V4.82971H108.15V1.43614H99.4433V17.3742H108.173V13.9806H103.726V13.9572Z" fill="black"/>
</svg>
