<svg width="118" height="19" viewBox="0 0 118 19" fill="none" xmlns="http://www.w3.org/2000/svg">
<path d="M2.54121 3.02142C0.838599 4.69862 0 6.83323 0 9.42526C0 12.1952 0.838597 14.4569 2.5158 16.1595C4.19299 17.8621 6.37844 18.7261 9.09753 18.7261C9.88531 18.7261 10.7747 18.599 11.7404 18.3195V14.2027C10.851 14.4569 10.0886 14.5839 9.42789 14.5839C8.08105 14.5839 7.01374 14.1265 6.20055 13.2371C5.38736 12.3222 4.98077 11.1025 4.98077 9.55232C4.98077 8.10383 5.38737 6.90946 6.17514 5.99463C6.98833 5.05438 7.9794 4.59696 9.19918 4.59696C9.98695 4.59696 10.8256 4.72402 11.7404 4.97815V0.861391C10.9018 0.632682 9.96154 0.531029 8.97047 0.531029C6.37844 0.505617 4.24382 1.34422 2.54121 3.02142ZM20.1772 0.505615C17.8393 0.505615 16.0096 1.29339 14.6882 2.84353C13.3668 4.39367 12.7315 6.57911 12.7315 9.37444C12.7315 12.3985 13.3922 14.711 14.6882 16.3119C15.9842 17.9129 17.8901 18.7261 20.3805 18.7261C22.7946 18.7261 24.6497 17.9129 25.9457 16.3119C27.2418 14.711 27.9025 12.4493 27.9025 9.55232C27.9025 6.65534 27.2418 4.41908 25.9203 2.84353C24.5735 1.29339 22.6676 0.505615 20.1772 0.505615ZM22.1848 13.7199C21.7273 14.4314 21.0412 14.7872 20.1772 14.7872C19.364 14.7872 18.7541 14.4314 18.3221 13.7199C17.8901 13.0084 17.6868 11.5853 17.6868 9.42526C17.6868 6.09628 18.5254 4.44449 20.228 4.44449C22.0069 4.44449 22.9217 6.12169 22.9217 9.5015C22.8963 11.5853 22.6422 13.0084 22.1848 13.7199ZM40.456 0.988451L39.5412 4.8765C39.3125 5.86757 39.0838 6.88405 38.8805 7.92595L38.3723 10.6196C37.8894 7.92595 37.2287 4.72403 36.3901 0.988451H30.4945L28.2837 18.2941H32.7054L33.8997 6.37581L36.9238 18.2941H40.0749L42.9718 6.40122L44.217 18.2941H48.842L46.5041 0.988451H40.456ZM61.6243 0.988451L60.7095 4.8765C60.4808 5.86757 60.2521 6.88405 60.0488 7.92595L59.5405 10.6196C59.0577 7.92595 58.397 4.72403 57.5584 0.988451H51.6628L49.4519 18.2941H53.8736L55.068 6.37581L58.092 18.2941H61.2431L64.1147 6.40122L65.3599 18.2941H69.9849L67.647 0.988451H61.6243ZM76.0076 11.4582H80.1497V7.87512H76.0076V4.69861H80.785V1.01386H71.3317V18.3195H80.8105V14.6347H76.0076V11.4582ZM93.9739 8.71373C94.4567 7.92595 94.7109 7.11276 94.7109 6.27416C94.7109 4.64779 94.0756 3.35177 92.805 2.41152C91.5343 1.47127 89.7809 0.988451 87.5955 0.988451H82.1573V18.2941H86.8331V10.4163H86.9094L90.6958 18.2941H95.6257L91.8901 10.4926C92.7795 10.086 93.4911 9.5015 93.9739 8.71373ZM86.8077 8.43419V4.31743C87.9258 4.34284 88.7136 4.52073 89.1964 4.8765C89.6793 5.23227 89.908 5.79133 89.908 6.60452C89.908 7.79889 88.8661 8.40878 86.8077 8.43419ZM97.4554 3.02142C95.7528 4.69862 94.9142 6.83323 94.9142 9.42526C94.9142 12.1952 95.7528 14.4569 97.43 16.1595C99.1072 17.8621 101.293 18.7261 104.012 18.7261C104.799 18.7261 105.689 18.599 106.655 18.3195V14.2027C105.765 14.4569 105.003 14.5839 104.342 14.5839C102.995 14.5839 101.928 14.1265 101.115 13.2371C100.302 12.3222 99.8949 11.1025 99.8949 9.55232C99.8949 8.10383 100.302 6.90946 101.089 5.99463C101.902 5.05438 102.894 4.59696 104.113 4.59696C104.901 4.59696 105.74 4.72402 106.655 4.97815V0.861391C105.816 0.632682 104.876 0.531029 103.885 0.531029C101.318 0.505617 99.158 1.34422 97.4554 3.02142ZM112.626 14.5839V11.4328H116.769V7.84972H112.626V4.6732H117.429V0.988451H107.976V18.2941H117.455V14.6093H112.626V14.5839Z" fill="white"/>
</svg>
