<svg width="17" height="32" viewBox="0 0 17 32" fill="none" xmlns="http://www.w3.org/2000/svg">
<path fill-rule="evenodd" clip-rule="evenodd" d="M0.916143 23.6424C0.97135 23.5093 1.05226 23.3885 1.15424 23.2867C1.25597 23.1848 1.37681 23.1039 1.50985 23.0486C1.64289 22.9934 1.78552 22.965 1.92956 22.965C2.0736 22.965 2.21623 22.9934 2.34927 23.0486C2.48232 23.1039 2.60316 23.1848 2.70488 23.2867L7.40496 27.9886L7.40496 1.09484C7.40496 0.804406 7.52033 0.525867 7.7257 0.320499C7.93107 0.115131 8.20961 -0.000244463 8.50004 -0.000244476C8.79048 -0.000244488 9.06902 0.115131 9.27438 0.320499C9.47975 0.525867 9.59513 0.804406 9.59513 1.09484L9.59513 27.9887L14.2953 23.2867C14.5009 23.0811 14.7798 22.9656 15.0706 22.9656C15.3614 22.9656 15.6403 23.0811 15.8459 23.2867C16.0515 23.4924 16.1671 23.7713 16.1671 24.0621C16.1671 24.3529 16.0515 24.6318 15.8459 24.8374L9.2754 31.4079C9.17367 31.5099 9.05283 31.5908 8.91979 31.646C8.78674 31.7012 8.64412 31.7296 8.50008 31.7296C8.35603 31.7296 8.21341 31.7012 8.08037 31.646C7.94732 31.5908 7.82648 31.5099 7.72476 31.4079L1.15424 24.8374C1.05226 24.7357 0.97135 24.6148 0.916143 24.4818C0.860937 24.3487 0.832521 24.2061 0.832521 24.0621C0.832521 23.918 0.860937 23.7754 0.916143 23.6424Z" fill="black"/>
</svg>
