<svg width="25" height="52" viewBox="0 0 25 52" fill="none" xmlns="http://www.w3.org/2000/svg">
<path fill-rule="evenodd" clip-rule="evenodd" d="M0.136329 13.1847C0.226332 13.4016 0.358243 13.5987 0.524504 13.7645C0.690345 13.9308 0.887358 14.0627 1.10426 14.1527C1.32116 14.2427 1.55368 14.289 1.78851 14.289C2.02335 14.289 2.25587 14.2427 2.47277 14.1527C2.68967 14.0627 2.88668 13.9308 3.05253 13.7645L10.7151 6.099L10.7151 49.9439C10.7151 50.4174 10.9032 50.8715 11.238 51.2063C11.5728 51.5412 12.0269 51.7292 12.5004 51.7292C12.9739 51.7292 13.4281 51.5412 13.7629 51.2063C14.0977 50.8715 14.2858 50.4174 14.2858 49.9439L14.2858 6.09896L21.9484 13.7645C22.2836 14.0997 22.7383 14.2881 23.2124 14.2881C23.6865 14.2881 24.1412 14.0997 24.4764 13.7645C24.8117 13.4293 25 12.9746 25 12.5005C25 12.0264 24.8117 11.5717 24.4764 11.2365L13.7645 0.52452C13.5986 0.358261 13.4016 0.226352 13.1847 0.136348C12.9678 0.0463442 12.7353 1.47021e-05 12.5005 1.47124e-05C12.2656 1.47226e-05 12.0331 0.0463442 11.8162 0.136348C11.5993 0.226352 11.4023 0.358261 11.2365 0.52452L0.524504 11.2365C0.358243 11.4023 0.226332 11.5993 0.136329 11.8162C0.0463252 12.0331 -1.72501e-06 12.2657 -1.71474e-06 12.5005C-1.70448e-06 12.7353 0.0463253 12.9678 0.136329 13.1847Z" fill="black"/>
</svg>
